# File created by Blade
# Date/Time:  Wed Apr 08 14:55:03 2015
# Frame Rate: 120.000 fps
#------------------------------------------------------
:FULLY-SPECIFIED
:DEGREES
856
root 2.850795 31.570532 -12.599566 19.786207 31.856724 -2.622963
Spine -11.818018 2.255996 -2.760620
Head -1.289031 -24.257749 4.793184
LeftShoulder -21.614054 49.544502 5.175062
LeftArm 54.425270 18.827918 -63.276036
LeftForeArm 11.497941 -0.000000 118.933143
LeftHand 4.026999 -0.000000 -6.861798
LeftHandThumb1 -26.253704 0.000000 33.147579
RightShoulder -3.115752 -7.054833 -18.749394
RightArm 19.378269 -37.046088 81.253626
RightForeArm -1.562425 -0.000000 111.193954
RightHand 13.330583 -0.000000 -9.192314
RightHandThumb1 -24.326973 -0.000000 -32.862282
LeftUpLeg -49.067580 7.205674 -6.923643
LeftLeg 36.438417 -0.000000 -0.000000
LeftFoot -16.279592 26.288423 -12.654979
LeftToeBase -6.541463 -0.000000 0.000000
RightUpLeg -6.704243 -5.997813 11.524586
RightLeg 4.988364 -0.000000 -0.000000
RightFoot -22.103176 -13.330049 16.670167
RightToeBase -2.458254 -0.000000 0.000000
857
root 2.849708 31.567476 -12.557561 19.748031 32.358412 -2.601718
Spine -11.835027 2.428778 -3.080054
Head -1.416116 -24.767288 5.105632
LeftShoulder -21.604477 49.595033 5.280619
LeftArm 54.301692 18.595033 -63.276296
LeftForeArm 11.278230 -0.000000 119.033440
LeftHand 4.217700 -0.000000 -6.452996
LeftHandThumb1 -26.253704 0.000000 33.147579
RightShoulder -3.095182 -6.888318 -18.751599
RightArm 19.541763 -37.040094 81.399607
RightForeArm -2.113602 -0.000000 111.162553
RightHand 13.806091 -0.000000 -9.181587
RightHandThumb1 -24.326973 -0.000000 -32.862282
LeftUpLeg -48.925568 7.280228 -7.170522
LeftLeg 36.555562 -0.000000 -0.000000
LeftFoot -16.150115 26.943781 -12.282507
LeftToeBase -7.124543 -0.000000 0.000000
RightUpLeg -6.939708 -6.096534 11.669540
RightLeg 5.624641 -0.000000 -0.000000
RightFoot -22.371844 -13.524265 16.892518
RightToeBase -2.614060 -0.000000 0.000000
858
root 2.851185 31.563043 -12.507593 19.709346 32.906955 -2.615927
Spine -11.884994 2.545655 -3.348429
Head -1.537874 -25.253498 5.386995
LeftShoulder -21.626204 49.644069 5.342266
LeftArm 54.196697 18.339474 -63.260102
LeftForeArm 10.927315 -0.000000 119.162434
LeftHand 4.327418 -0.000000 -6.016231
LeftHandThumb1 -26.253704 0.000000 33.147579
RightShoulder -3.038817 -6.732847 -18.782716
RightArm 19.718766 -37.069193 81.538519
RightForeArm -2.519880 -0.000000 111.174266
RightHand 14.089492 -0.000000 -9.324030
RightHandThumb1 -24.326973 -0.000000 -32.862282
LeftUpLeg -48.822338 7.417828 -7.435858
LeftLeg 36.705694 -0.000000 -0.000000
LeftFoot -15.875883 27.406772 -11.990091
LeftToeBase -8.548115 -0.000000 0.000000
RightUpLeg -7.157816 -6.156635 11.841132
RightLeg 6.229999 -0.000000 -0.000000
RightFoot -22.664908 -13.675859 17.249190
RightToeBase -2.661713 -0.000000 0.000000
859
root 2.856340 31.556901 -12.455646 19.644270 33.451893 -2.656832
Spine -11.923103 2.660429 -3.577362
Head -1.625217 -25.762349 5.605402
LeftShoulder -21.644237 49.666039 5.394949
LeftArm 54.097799 18.089565 -63.254340
LeftForeArm 10.577354 -0.000000 119.258393
LeftHand 4.556674 -0.000000 -5.459494
LeftHandThumb1 -26.253704 0.000000 33.147579
RightShoulder -2.927192 -6.532658 -18.857413
RightArm 19.809888 -37.073373 81.751263
RightForeArm -2.924487 -0.000000 111.248101
RightHand 13.960980 -0.000000 -9.354133
RightHandThumb1 -24.326973 -0.000000 -32.862282
LeftUpLeg -48.690398 7.557811 -7.657535
LeftLeg 36.803184 -0.000000 -0.000000
LeftFoot -15.488549 27.626652 -11.707665
LeftToeBase -9.267480 -0.000000 0.000000
RightUpLeg -7.371329 -6.230934 12.017851
RightLeg 6.881807 -0.000000 -0.000000
RightFoot -22.944647 -13.739800 17.582757
RightToeBase -2.834733 -0.000000 0.000000
860
root 2.862640 31.549265 -12.394237 19.583133 34.056940 -2.762309
Spine -12.019793 2.729561 -3.737122
Head -1.707274 -26.277117 5.801708
LeftShoulder -21.714550 49.725623 5.389331
LeftArm 54.082133 17.805037 -63.214747
LeftForeArm 10.278245 0.000000 119.365721
LeftHand 4.635451 -0.000000 -4.945577
LeftHandThumb1 -26.253704 0.000000 33.147579
RightShoulder -2.834349 -6.386100 -18.947123
RightArm 20.074651 -37.139196 81.808877
RightForeArm -3.354480 -0.000000 111.322631
RightHand 13.482350 0.000000 -9.079661
RightHandThumb1 -24.326973 -0.000000 -32.862282
LeftUpLeg -48.540807 7.567261 -7.751841
LeftLeg 36.824744 -0.000000 -0.000000
LeftFoot -14.983640 27.770576 -11.437193
LeftToeBase -10.195320 -0.000000 0.000000
RightUpLeg -7.594892 -6.386725 12.260824
RightLeg 7.507790 -0.000000 -0.000000
RightFoot -23.172033 -13.615284 18.000802
RightToeBase -3.322657 -0.000000 0.000000
861
root 2.872255 31.539546 -12.326929 19.532564 34.678836 -2.854419
Spine -12.130703 2.797020 -3.924845
Head -1.768663 -26.791390 6.007703
LeftShoulder -21.710226 49.729592 5.468944
LeftArm 54.035986 17.531543 -63.214183
LeftForeArm 9.966671 -0.000000 119.475839
LeftHand 4.802386 -0.000000 -4.544126
LeftHandThumb1 -26.253704 0.000000 33.147579
RightShoulder -2.746104 -6.236262 -19.042470
RightArm 20.220790 -37.208664 81.947817
RightForeArm -3.817247 -0.000000 111.382793
RightHand 13.425465 -0.000000 -9.191029
RightHandThumb1 -24.326973 -0.000000 -32.862282
LeftUpLeg -48.381828 7.608266 -7.895406
LeftLeg 36.824056 -0.000000 -0.000000
LeftFoot -14.344476 27.771347 -11.282417
LeftToeBase -10.465534 -0.000000 0.000000
RightUpLeg -7.805002 -6.539171 12.488220
RightLeg 8.113839 -0.000000 -0.000000
RightFoot -23.397116 -13.505621 18.417017
RightToeBase -3.391913 -0.000000 0.000000
862
root 2.885635 31.529024 -12.257052 19.507011 35.292796 -2.962179
Spine -12.281675 2.858716 -4.101805
Head -1.815763 -27.293933 6.210509
LeftShoulder -21.711004 49.675403 5.549589
LeftArm 53.956860 17.285818 -63.234449
LeftForeArm 9.797688 0.000000 119.603689
LeftHand 4.897371 -0.000000 -4.121046
LeftHandThumb1 -26.253704 0.000000 33.147579
RightShoulder -2.607704 -5.982274 -19.194336
RightArm 20.233950 -37.274233 82.189398
RightForeArm -4.063132 -0.000000 111.458208
RightHand 13.360383 -0.000000 -9.407107
RightHandThumb1 -24.326973 -0.000000 -32.862282
LeftUpLeg -48.240528 7.671678 -8.069175
LeftLeg 36.779352 -0.000000 -0.000000
LeftFoot -13.568139 27.687531 -11.233926
LeftToeBase -10.146879 -0.000000 0.000000
RightUpLeg -8.050117 -6.605414 12.716311
RightLeg 8.748840 -0.000000 -0.000000
RightFoot -23.643323 -13.426649 18.855624
RightToeBase -3.758850 -0.000000 0.000000
